<?xml version="1.0" encoding="utf-8"?>
<!-- Generator: Adobe Illustrator 23.0.1, SVG Export Plug-In . SVG Version: 6.00 Build 0)  -->
<svg version="1.1" xmlns="http://www.w3.org/2000/svg" xmlns:xlink="http://www.w3.org/1999/xlink" x="0px" y="0px" width="512px"
	 height="512px" viewBox="0 0 512 512" style="enable-background:new 0 0 512 512;" xml:space="preserve">
<style type="text/css">
	.st0{display:none;}
	.st1{display:inline;fill:#686868;}
	.st2{display:inline;}
	.st3{display:none;fill:#FFFFFF;}
	.st4{opacity:0.68;fill:#686868;enable-background:new    ;}
	.st5{fill:#FFFFFF;}
	.st6{font-family:'PTMono-Bold';}
	.st7{font-size:38px;}
</style>
<g id="Calque_1" class="st0">
	<g>
		<rect x="136.6" y="140" class="st1" width="385.8" height="271.5"/>
	</g>
	<g class="st2">
		<path class="st3" d="M300.2,279h-52.3c-3.1,0-5.7-2.5-5.7-5.7v-42.2c0-4.7,3.8-8.5,8.5-8.5h49.5c3.1,0,5.7,2.5,5.7,5.7v45.1
			C305.8,276.5,303.3,279,300.2,279z"/>
		<circle class="st4" cx="264.2" cy="261.5" r="29.6"/>
		<path class="st5" d="M251.1,246.5c-1.7,0-3,1.4-3,3v22.1c0,1.7,1.4,3,3,3h26.1c1.7,0,3-1.4,3-3v-22.1c0-1.7-1.4-3-3-3H251.1z
			 M251.1,248.5h6.7c0.2,0,0.4,0.2,0.4,0.4v1.3c0,0.2-0.2,0.4-0.4,0.4h-7.3c-0.2,0-0.4-0.2-0.4-0.4v-0.6
			C250.1,249,250.6,248.5,251.1,248.5z M277.9,254.6h-27.4c-0.2,0-0.4-0.2-0.4-0.4v-2.3c0-0.2,0.2-0.4,0.4-0.4h8.7l1.9-2.8
			c0.1-0.1,0.2-0.2,0.3-0.2h15.9c0.6,0,1,0.5,1,1v4.6C278.3,254.4,278.1,254.6,277.9,254.6z M264.2,271.2c-4.2,0-7.5-3.4-7.5-7.5
			s3.4-7.5,7.5-7.5c4.2,0,7.5,3.4,7.5,7.5S268.3,271.2,264.2,271.2z M264.2,258.1c-3,0-5.5,2.5-5.5,5.5s2.5,5.5,5.5,5.5
			s5.5-2.5,5.5-5.5S267.2,258.1,264.2,258.1z M261.2,264.6c-0.6,0-1-0.5-1-1c0-2.2,1.8-4,4-4c0.6,0,1,0.5,1,1s-0.5,1-1,1
			c-1.1,0-2,0.9-2,2C262.2,264.2,261.7,264.6,261.2,264.6z"/>
		
			<image style="display:none;overflow:visible;enable-background:new    ;" width="79" height="79" xlink:href="btn_mode_objects_on.png"  transform="matrix(1 0 0 1 153.7159 224.9481)">
		</image>
	</g>
</g>
<g id="Calque_1_-_copie">
	<g class="st0">
		<rect x="136.6" y="140" class="st1" width="385.8" height="271.5"/>
	</g>
	<g>
		<circle class="st4" cx="264.2" cy="261.5" r="29.6"/>
		<text transform="matrix(1.5943 0 0 1 247.2018 275.16)" class="st5 st6 st7">X</text>
	</g>
</g>
</svg>
